# xmcd
#
# Track frame offsets:
#	150
#	22867
#	40881
#	58919
#	76983
#	92015
#	109452
#	129031
#	150515
#	168424
#	182770
#
# Disc length: 2635 seconds
#
# Revision: 1
# Processed by: cddbd v1.5.1PL0 Copyright (c) Steve Scherf et al.
# Submitted via: CDRider 2.1
#
DISCID=800a490b
DTITLE=Eric Koskinen - Sorrowville
DYEAR=2004
DGENRE=Blues
TTITLE0=Sorrowville
TTITLE1=Weatherman
TTITLE2=No place to hide
TTITLE3=I'll see you tomorrow
TTITLE4=Clarksville
TTITLE5=Could have been a saint
TTITLE6=Keep the change
TTITLE7=Club13
TTITLE8=Johnny Bedford
TTITLE9=Used to
TTITLE10=Mamma
EXTD=
EXTT0=
EXTT1=
EXTT2=
EXTT3=
EXTT4=
EXTT5=
EXTT6=
EXTT7=
EXTT8=
EXTT9=
EXTT10=
PLAYORDER=
